<?xml version="1.0" encoding="utf-8"?>
<!-- Generator: Adobe Illustrator 16.0.0, SVG Export Plug-In . SVG Version: 6.00 Build 0)  -->
<!DOCTYPE svg PUBLIC "-//W3C//DTD SVG 1.1//EN" "http://www.w3.org/Graphics/SVG/1.1/DTD/svg11.dtd">
<svg version="1.1" id="Capa_1" xmlns="http://www.w3.org/2000/svg" xmlns:xlink="http://www.w3.org/1999/xlink" x="0px" y="0px"
	 width="36.436px" height="29.767px" viewBox="0 0 36.436 29.767" enable-background="new 0 0 36.436 29.767" xml:space="preserve">
<rect x="128.509" y="41.01" fill="#BDBEBF" width="118.834" height="118.833"/>
<path fill="#9EA1A2" d="M225.638,113.21c-2.117-4.51-4.729-8.156-7.775-10.848c-1.639,2.773-3.644,5.295-5.975,7.512
	c0.375,0.354,0.743,0.734,1.098,1.141c2.162,2.43,4.203,6.172,5.328,9.76c0.731,2.266,1.147,4.609,1.143,6.428v21.076h9.585v-21.064
	C229.017,122.816,227.871,118.103,225.638,113.21 M150.223,113.195c-2.239,4.9-3.386,9.615-3.412,14.008v21.076h9.586V127.21
	c-0.008-1.818,0.408-4.16,1.136-6.422c1.134-3.605,3.176-7.348,5.325-9.766c0.34-0.389,0.697-0.758,1.062-1.102
	c-2.335-2.213-4.345-4.732-5.989-7.508C154.913,105.097,152.321,108.722,150.223,113.195 M187.881,52.576
	c-15.122,0.006-27.427,12.31-27.429,27.428c0.002,15.121,12.307,27.428,27.429,27.432c15.121-0.004,27.425-12.311,27.429-27.432
	C215.306,64.885,203.002,52.582,187.881,52.576 M187.88,98.562c-10.213-0.018-18.538-8.342-18.558-18.561
	c0.02-10.211,8.345-18.534,18.556-18.555h0.003h0.002c4.949,0.006,9.606,1.936,13.119,5.438c3.503,3.511,5.433,8.17,5.435,13.121
	C206.419,90.22,198.098,98.544,187.88,98.562"/>
<path fill="#4C82AD" d="M5.525,4.487l-1.601,6.516C1.65,11.736,0,13.872,0,16.386v7.534c0,1.172,0.95,2.122,2.122,2.122h3.505v1.603
	c0,1.172,0.95,2.122,2.122,2.122c1.171,0,2.121-0.95,2.121-2.122v-1.603h16.696v1.603c0,1.172,0.949,2.122,2.121,2.122
	s2.121-0.95,2.121-2.122v-1.603h3.506c1.172,0,2.121-0.95,2.121-2.122v-7.534c0-2.515-1.649-4.65-3.924-5.383l-1.601-6.516
	C30.262,1.845,27.909,0,25.188,0h-13.94C8.527,0,6.174,1.845,5.525,4.487 M30.768,14.974c0.004,0,0.008,0.001,0.012,0.001
	c0.003,0,0.005-0.001,0.007-0.001c0.776,0.002,1.407,0.634,1.407,1.412v5.412H4.243v-5.412c0-0.779,0.633-1.412,1.411-1.412H30.768z
	 M26.791,5.499l1.285,5.232H8.359l1.285-5.232c0.183-0.739,0.842-1.256,1.604-1.256h13.941C25.95,4.243,26.609,4.759,26.791,5.499"
	/>
</svg>
