<?xml version="1.0" encoding="utf-8"?>
<!-- Generator: Adobe Illustrator 16.0.0, SVG Export Plug-In . SVG Version: 6.00 Build 0)  -->
<!DOCTYPE svg PUBLIC "-//W3C//DTD SVG 1.1//EN" "http://www.w3.org/Graphics/SVG/1.1/DTD/svg11.dtd">
<svg version="1.1" id="Capa_1" xmlns="http://www.w3.org/2000/svg" xmlns:xlink="http://www.w3.org/1999/xlink" x="0px" y="0px"
	 width="97.265px" height="97.264px" viewBox="0 0 97.265 97.264" enable-background="new 0 0 97.265 97.264" xml:space="preserve">
<g>
	<path fill="#6FB1E4" d="M29.276,4.005C11.491,11.729,0,29.246,0,48.631c0,26.816,21.817,48.633,48.632,48.633
		c26.817,0,48.633-21.816,48.633-48.633c0-20.418-12.896-38.801-32.088-45.745c-1.884-0.681-3.966,0.294-4.647,2.179
		s0.294,3.965,2.18,4.647C79.036,15.62,90.006,31.26,90.006,48.631c0,22.814-18.561,41.375-41.375,41.375
		c-22.813,0-41.374-18.561-41.374-41.375c0-16.494,9.778-31.397,24.91-37.968c1.838-0.799,2.681-2.936,1.883-4.775
		C33.253,4.05,31.114,3.206,29.276,4.005"/>
	<path fill="#6FB1E4" d="M48.708,7.258c2.003,0,3.628-1.625,3.628-3.629C52.336,1.624,50.711,0,48.708,0h-0.076
		c-2.004,0-3.629,1.624-3.629,3.629c0,2.004,1.625,3.629,3.629,3.629H48.708z"/>
	<path fill="#6FB1E4" d="M26.919,30.847l-2.738,11.147c-3.891,1.253-6.714,4.907-6.714,9.209v12.888c0,2.005,1.625,3.63,3.629,3.63
		h5.997v2.743c0,2.004,1.625,3.629,3.63,3.629c2.004,0,3.629-1.625,3.629-3.629v-2.743h28.561v2.743
		c0,2.004,1.626,3.629,3.631,3.629c2.004,0,3.629-1.625,3.629-3.629v-2.743h5.996c2.004,0,3.629-1.625,3.629-3.63V51.204
		c0-4.303-2.822-7.957-6.713-9.209l-2.738-11.147c-1.11-4.52-5.135-7.676-9.789-7.676h-23.85
		C32.054,23.171,28.029,26.327,26.919,30.847 M70.101,48.788c0.007,0,0.014,0,0.021,0c0.004,0,0.008,0,0.01,0
		c1.33,0.004,2.408,1.084,2.408,2.414v9.26H24.726v-9.26c0-1.332,1.083-2.416,2.414-2.416h42.961V48.788z M63.297,32.578
		l2.199,8.951H31.769l2.198-8.951c0.311-1.265,1.438-2.149,2.741-2.149h23.849C61.86,30.429,62.987,31.313,63.297,32.578"/>
</g>
<g>
	<path fill="#BEBDBD" d="M142.299,5.34c-17.785,7.724-29.276,25.241-29.276,44.627c0,26.816,21.816,48.633,48.632,48.633
		c26.817,0,48.633-21.816,48.633-48.633c0-20.419-12.895-38.802-32.088-45.745c-1.884-0.681-3.966,0.294-4.646,2.179
		c-0.683,1.885,0.294,3.965,2.179,4.647c16.327,5.907,27.297,21.547,27.297,38.919c0,22.814-18.56,41.374-41.374,41.374
		c-22.813,0-41.374-18.56-41.374-41.374c0-16.494,9.778-31.398,24.91-37.969c1.837-0.799,2.681-2.936,1.883-4.775
		C146.274,5.385,144.137,4.541,142.299,5.34"/>
	<path fill="#BEBDBD" d="M161.73,8.593c2.004,0,3.629-1.625,3.629-3.629c0-2.005-1.625-3.629-3.629-3.629h-0.076
		c-2.004,0-3.629,1.624-3.629,3.629c0,2.004,1.625,3.629,3.629,3.629H161.73z"/>
	<path fill="#BEBDBD" d="M138.924,46.077l22.71-20.329l22.71,20.329c0.822,0.75,1.984,1.001,3.044,0.658
		c1.059-0.344,1.852-1.23,2.076-2.32c0.226-1.09-0.152-2.217-0.988-2.952l-23.878-21.37c-1.729-1.474-4.278-1.454-5.984,0.047
		l-12.465,11.155v-1.462c0-1.71-1.387-3.097-3.097-3.097c-1.711,0-3.098,1.387-3.098,3.097v7.009l-5.163,4.621
		c-1.255,1.145-1.353,3.088-0.22,4.354C135.705,47.082,137.646,47.199,138.924,46.077"/>
	<path fill="#BEBDBD" d="M180.216,49.963c-1.711,0-3.098,1.387-3.098,3.097v21.679h-30.97V53.061c0-1.71-1.387-3.097-3.097-3.097
		c-1.711,0-3.098,1.387-3.098,3.097v23.646c0.031,2.364,1.973,4.257,4.336,4.227h34.687c2.366,0.025,4.305-1.87,4.336-4.237V53.061
		C183.313,51.351,181.925,49.963,180.216,49.963"/>
</g>
</svg>
