<?xml version="1.0" encoding="utf-8"?>
<!-- Generator: Adobe Illustrator 16.0.0, SVG Export Plug-In . SVG Version: 6.00 Build 0)  -->
<!DOCTYPE svg PUBLIC "-//W3C//DTD SVG 1.1//EN" "http://www.w3.org/Graphics/SVG/1.1/DTD/svg11.dtd">
<svg version="1.1" id="Capa_1" xmlns="http://www.w3.org/2000/svg" xmlns:xlink="http://www.w3.org/1999/xlink" x="0px" y="0px"
	 width="97.265px" height="97.265px" viewBox="0 0 97.265 97.265" enable-background="new 0 0 97.265 97.265" xml:space="preserve">
<g class="iconblue">
	<path fill="#6FB1E4" d="M-83.747,2.67c-17.785,7.724-29.276,25.241-29.276,44.626c0,26.816,21.817,48.633,48.632,48.633
		c26.817,0,48.633-21.816,48.633-48.633c0-20.418-12.896-38.801-32.088-45.745c-1.884-0.681-3.966,0.294-4.647,2.179
		s0.294,3.965,2.18,4.647c16.326,5.907,27.297,21.547,27.297,38.918c0,22.814-18.561,41.375-41.375,41.375
		c-22.813,0-41.374-18.561-41.374-41.375c0-16.494,9.778-31.397,24.91-37.968c1.838-0.799,2.681-2.936,1.883-4.775
		C-79.77,2.715-81.909,1.871-83.747,2.67"/>
	<path fill="#6FB1E4" d="M-64.314,5.923c2.003,0,3.628-1.625,3.628-3.629c0-2.005-1.625-3.629-3.628-3.629h-0.076
		c-2.004,0-3.629,1.624-3.629,3.629c0,2.004,1.625,3.629,3.629,3.629H-64.314z"/>
	<path fill="#6FB1E4" d="M-86.104,29.512l-2.738,11.147c-3.891,1.253-6.714,4.907-6.714,9.209v12.888c0,2.005,1.625,3.63,3.629,3.63
		h5.997v2.743c0,2.004,1.625,3.629,3.63,3.629c2.004,0,3.629-1.625,3.629-3.629v-2.743h28.561v2.743
		c0,2.004,1.626,3.629,3.631,3.629c2.004,0,3.629-1.625,3.629-3.629v-2.743h5.996c2.004,0,3.629-1.625,3.629-3.63V49.869
		c0-4.303-2.822-7.957-6.713-9.209l-2.738-11.147c-1.11-4.52-5.135-7.676-9.789-7.676h-23.85
		C-80.969,21.836-84.994,24.992-86.104,29.512 M-42.921,47.453c0.007,0,0.014,0,0.021,0c0.004,0,0.008,0,0.01,0
		c1.33,0.004,2.408,1.084,2.408,2.414v9.26h-47.813v-9.26c0-1.332,1.083-2.416,2.414-2.416h42.961V47.453z M-49.725,31.243
		l2.199,8.951h-33.728l2.198-8.951c0.311-1.265,1.438-2.149,2.741-2.149h23.849C-51.163,29.094-50.036,29.979-49.725,31.243"/>
</g>
<g class="iconblue">
	<path fill="#BEBDBD" d="M29.276,4.005C11.491,11.729,0,29.246,0,48.632c0,26.816,21.816,48.633,48.632,48.633
		c26.817,0,48.633-21.816,48.633-48.633c0-20.419-12.895-38.802-32.088-45.745c-1.884-0.681-3.966,0.294-4.646,2.179
		c-0.683,1.885,0.294,3.965,2.179,4.647C79.036,15.62,90.006,31.26,90.006,48.632c0,22.814-18.56,41.374-41.374,41.374
		c-22.813,0-41.374-18.56-41.374-41.374c0-16.494,9.778-31.398,24.91-37.969c1.837-0.799,2.681-2.936,1.883-4.775
		C33.252,4.05,31.114,3.206,29.276,4.005"/>
	<path fill="#BEBDBD" d="M48.708,7.258c2.004,0,3.629-1.625,3.629-3.629C52.337,1.624,50.712,0,48.708,0h-0.076
		c-2.004,0-3.629,1.624-3.629,3.629c0,2.004,1.625,3.629,3.629,3.629H48.708z"/>
	<path fill="#BEBDBD" d="M25.901,44.742l22.71-20.329l22.71,20.329c0.822,0.75,1.984,1.001,3.044,0.658
		c1.059-0.344,1.852-1.23,2.076-2.32c0.226-1.09-0.152-2.217-0.988-2.952l-23.878-21.37c-1.729-1.474-4.278-1.454-5.984,0.047
		L33.126,29.96v-1.462c0-1.71-1.387-3.097-3.097-3.097c-1.711,0-3.098,1.387-3.098,3.097v7.009l-5.163,4.621
		c-1.255,1.145-1.353,3.088-0.22,4.354C22.683,45.747,24.624,45.864,25.901,44.742"/>
	<path fill="#BEBDBD" d="M67.193,48.628c-1.711,0-3.098,1.387-3.098,3.097v21.679h-30.97V51.726c0-1.71-1.387-3.097-3.097-3.097
		c-1.711,0-3.098,1.387-3.098,3.097v23.646c0.031,2.364,1.973,4.257,4.336,4.227h34.687c2.366,0.025,4.305-1.87,4.336-4.237V51.726
		C70.29,50.016,68.902,48.628,67.193,48.628"/>
</g>
</svg>
